<?xml version="1.0" encoding="UTF-8"?>
<svg id="Layer_1" data-name="Layer 1" xmlns="http://www.w3.org/2000/svg" viewBox="0 0 450 40">
  <defs>
    <style>
      .cls-1 {
        fill: #c0e4ff;
      }

      .cls-1, .cls-2, .cls-3, .cls-4, .cls-5, .cls-6, .cls-7, .cls-8, .cls-9, .cls-10 {
        stroke-width: 0px;
      }

      .cls-2 {
        fill: #f58220;
      }

      .cls-3 {
        fill: #e6e6e6;
      }

      .cls-4 {
        fill: #3498db;
      }

      .cls-5 {
        fill: #5065a1;
      }

      .cls-6 {
        fill: #f79f1a;
      }

      .cls-7 {
        fill: #e74c3c;
      }

      .cls-8 {
        fill: #ccc;
      }

      .cls-9 {
        fill: #a0d468;
      }

      .cls-10 {
        fill: #ff5f01;
      }
    </style>
  </defs>
  <g id="credit_cards" data-name="credit cards">
    <g id="discover">
      <path class="cls-3" d="M446.36,0h-50.91c-2.01,0-3.64,1.63-3.64,3.64v32.73c0,2.01,1.63,3.64,3.64,3.64h50.91c2.01,0,3.64-1.63,3.64-3.64V3.64c0-2.01-1.63-3.64-3.64-3.64"/>
      <path class="cls-2" d="M450,25.17c-3.04,1.97-16.88,10.29-39.96,14.83h36.33c2.01,0,3.64-1.63,3.64-3.64v-11.19Z"/>
    </g>
    <g id="amex">
      <path class="cls-4" d="M375.87,0h-50.91c-2.01,0-3.64,1.63-3.64,3.64v32.73c0,2.01,1.63,3.64,3.64,3.64h50.91c2.01,0,3.64-1.63,3.64-3.64V3.64c0-2.01-1.63-3.64-3.64-3.64"/>
      <rect class="cls-1" x="321.32" y="10.23" width="43.1" height="7.47"/>
      <rect class="cls-1" x="336.41" y="22.3" width="43.1" height="7.47"/>
    </g>
    <g id="mastercard">
      <path class="cls-3" d="M305.37,0h-50.91c-2.01,0-3.64,1.63-3.64,3.64v32.73c0,2.01,1.63,3.64,3.64,3.64h50.91c2.01,0,3.64-1.63,3.64-3.64V3.64c0-2.01-1.63-3.64-3.64-3.64"/>
      <g>
        <path class="cls-7" d="M279.91,11.11c-2.31-2.36-5.53-3.83-9.09-3.83-7.03,0-12.72,5.7-12.72,12.73s5.69,12.73,12.72,12.73c3.56,0,6.78-1.47,9.09-3.83-2.25-2.29-3.63-5.43-3.63-8.89s1.39-6.6,3.63-8.89Z"/>
        <path class="cls-6" d="M289.01,7.27c-3.57,0-6.79,1.47-9.09,3.83,2.24,2.3,3.63,5.43,3.63,8.89s-1.39,6.6-3.63,8.89c2.31,2.36,5.53,3.83,9.09,3.83,7.03,0,12.73-5.7,12.73-12.73s-5.7-12.73-12.73-12.73Z"/>
        <path class="cls-10" d="M279.91,11.11c-2.25,2.3-3.63,5.43-3.63,8.89s1.39,6.6,3.63,8.89c2.24-2.29,3.63-5.43,3.63-8.89s-1.39-6.6-3.63-8.89Z"/>
      </g>
    </g>
    <g id="visa">
      <path class="cls-6" d="M180.33,32.73v3.64c0,2.01,1.63,3.64,3.64,3.64h50.91c2.01,0,3.64-1.63,3.64-3.64v-3.64h-58.18Z"/>
      <rect class="cls-3" x="180.33" y="7.27" width="58.18" height="25.45"/>
      <path class="cls-5" d="M234.88,0h-50.91c-2.01,0-3.64,1.63-3.64,3.64v3.64h58.18v-3.64c0-2.01-1.63-3.64-3.64-3.64"/>
    </g>
  </g>
  <path id="checked_icon" data-name="checked icon" class="cls-9" d="M16,4C7.16,4,0,11.16,0,20s7.16,16,16,16,16-7.16,16-16S24.84,4,16,4ZM15.25,26.92l-1.14,1.23-1.09-1.27-6.18-7.18,2.01-2.17,5,3.69,10.94-8.99,2.04,2.16-11.59,12.53Z"/>
  <g>
    <path class="cls-8" d="M59.26,19.24l-3.06-10.08-3.1,10.08h-2.25l-4.28-12.92h2.35l3.14,10.51,3.12-10.49,2.14-.02,3.14,10.51,3.12-10.51h2.25l-4.32,12.92h-2.23Z"/>
    <path class="cls-8" d="M69.51,8.28v3.49h6.31v1.96h-6.31v3.56h7.27v1.96h-9.45V6.32h9.23v1.96h-7.05Z"/>
    <path class="cls-8" d="M86.04,16.33l-1.24,2.92h-2.27l5.71-12.92h2.23l5.65,12.92h-2.33l-1.24-2.92h-6.52ZM89.29,8.65l-2.44,5.74h4.87l-2.44-5.74Z"/>
    <path class="cls-8" d="M108.14,8.26l-1.27,1.59c-.94-1.02-2.29-1.64-3.6-1.64-2.58,0-4.62,1.99-4.62,4.54s2.03,4.56,4.62,4.56c1.29,0,2.62-.59,3.6-1.53l1.29,1.44c-1.31,1.29-3.18,2.12-5,2.12-3.78,0-6.72-2.86-6.72-6.57s2.97-6.5,6.79-6.5c1.83,0,3.66.76,4.91,1.99Z"/>
    <path class="cls-8" d="M120.73,8.26l-1.27,1.59c-.94-1.02-2.29-1.64-3.6-1.64-2.58,0-4.62,1.99-4.62,4.54s2.03,4.56,4.62,4.56c1.29,0,2.62-.59,3.6-1.53l1.29,1.44c-1.31,1.29-3.18,2.12-5,2.12-3.78,0-6.72-2.86-6.72-6.57s2.97-6.5,6.79-6.5c1.83,0,3.66.76,4.91,1.99Z"/>
    <path class="cls-8" d="M125.15,8.28v3.49h6.31v1.96h-6.31v3.56h7.27v1.96h-9.45V6.32h9.23v1.96h-7.05Z"/>
    <path class="cls-8" d="M140.23,6.32c3.25,0,5.11,1.61,5.11,4.41s-1.87,4.62-5.11,4.62h-2.97v3.9h-2.18V6.32h5.15ZM137.26,13.39h2.88c1.99,0,3.12-.85,3.12-2.6s-1.13-2.51-3.12-2.51h-2.88v5.11Z"/>
    <path class="cls-8" d="M152.23,8.28v10.97h-2.18v-10.97h-4.08v-1.96h10.36v1.96h-4.1Z"/>
    <path class="cls-8" d="M56.24,26.12l-1.01,1.25c-.74-.8-1.81-1.3-2.84-1.3-2.04,0-3.64,1.57-3.64,3.58s1.6,3.6,3.64,3.6c1.02,0,2.07-.47,2.84-1.21l1.02,1.14c-1.03,1.02-2.51,1.68-3.95,1.68-2.99,0-5.3-2.26-5.3-5.19s2.35-5.13,5.36-5.13c1.44,0,2.89.6,3.88,1.57Z"/>
    <path class="cls-8" d="M62.61,31.7c-.15.01-.31.01-.47.01h-2.42v3.07h-1.72v-10.2h4.14c2.61,0,4.11,1.27,4.11,3.48,0,1.63-.76,2.78-2.11,3.31l2.29,3.41h-1.95l-1.87-3.09ZM62.14,30.17c1.57,0,2.48-.67,2.48-2.05s-.9-1.98-2.48-1.98h-2.42v4.04h2.42Z"/>
    <path class="cls-8" d="M70.26,26.14v2.75h4.98v1.54h-4.98v2.81h5.74v1.54h-7.46v-10.2h7.29v1.54h-5.57Z"/>
    <path class="cls-8" d="M82.29,24.59c3.06,0,5.27,2.14,5.27,5.1s-2.23,5.1-5.32,5.1h-4.14v-10.2h4.18ZM79.83,33.25h2.51c1.98,0,3.5-1.47,3.5-3.54s-1.56-3.57-3.57-3.57h-2.43v7.11Z"/>
    <path class="cls-8" d="M89.4,34.79v-10.2h1.72v10.2h-1.72Z"/>
    <path class="cls-8" d="M97.54,26.14v8.66h-1.72v-8.66h-3.22v-1.54h8.17v1.54h-3.23Z"/>
    <path class="cls-8" d="M114.4,26.12l-1.01,1.25c-.74-.8-1.81-1.3-2.84-1.3-2.04,0-3.64,1.57-3.64,3.58s1.6,3.6,3.64,3.6c1.02,0,2.07-.47,2.84-1.21l1.02,1.14c-1.03,1.02-2.51,1.68-3.95,1.68-2.99,0-5.3-2.26-5.3-5.19s2.35-5.13,5.36-5.13c1.44,0,2.89.6,3.88,1.57Z"/>
    <path class="cls-8" d="M117.54,32.49l-.98,2.3h-1.79l4.5-10.2h1.76l4.46,10.2h-1.84l-.98-2.3h-5.14ZM120.1,26.43l-1.92,4.53h3.85l-1.92-4.53Z"/>
    <path class="cls-8" d="M131.46,31.7c-.15.01-.31.01-.47.01h-2.42v3.07h-1.72v-10.2h4.14c2.61,0,4.11,1.27,4.11,3.48,0,1.63-.76,2.78-2.11,3.31l2.29,3.41h-1.95l-1.87-3.09ZM130.99,30.17c1.57,0,2.48-.67,2.48-2.05s-.9-1.98-2.48-1.98h-2.42v4.04h2.42Z"/>
    <path class="cls-8" d="M141.58,24.59c3.06,0,5.27,2.14,5.27,5.1s-2.23,5.1-5.32,5.1h-4.14v-10.2h4.18ZM139.11,33.25h2.51c1.98,0,3.5-1.47,3.5-3.54s-1.56-3.57-3.57-3.57h-2.43v7.11Z"/>
    <path class="cls-8" d="M155.61,25.57l-.71,1.52c-1.11-.67-2.21-.95-2.99-.95-1.01,0-1.66.38-1.66,1.06,0,2.23,5.51,1.03,5.49,4.71,0,1.82-1.6,2.94-3.85,2.94-1.6,0-3.12-.66-4.17-1.62l.74-1.49c1.05.96,2.36,1.49,3.45,1.49,1.19,0,1.91-.45,1.91-1.24,0-2.27-5.51-1.01-5.51-4.63,0-1.75,1.5-2.84,3.72-2.84,1.33,0,2.62.42,3.57,1.05Z"/>
  </g>
</svg>